<?xml version="1.0" encoding="UTF-8" standalone="no"?> <svg xmlns:rdf="http://www.w3.org/1999/02/22-rdf-syntax-ns#" xmlns="http://www.w3.org/2000/svg" xmlns:cc="http://creativecommons.org/ns#" xmlns:dc="http://purl.org/dc/elements/1.1/" id="svg4137" height="2350.9" viewBox="0 0 3352.0467 2350.8748" width="3352"><defs id="defs4141"><filter id="filter4699" style="color-interpolation-filters:sRGB" height="1.0203" width="1.0293" y="-.010171" x="-.014630"><feGaussianBlur id="feGaussianBlur4701" stdDeviation="13.923148"></feGaussianBlur></filter></defs><g id="g4148"><path id="path4689" d="m82.308 3282.2c-0.989-39.5-35.333-76.2-71.441-76.2h-4.84v-41.5-41.5h3.5422c92.315 0 95.886-150.89 3.7559-158.68l-7.2981-0.6169v-32.673-32.673l8.8309-1.1757c88.423-11.773 89.723-143.65 1.5575-157.99l-10.386-1.7v-36.75-36.75h3.5422c92.358 0 95.93-150.88 3.7559-158.68l-7.2981-0.6169v-41.353-41.353h3.5422c32.139 0 63.994-28.277 71.534-63.5 9.82-45.9-27.203-95.5-71.26-95.5h-3.8163v-41.362-41.362l6.75-0.6838c91.162-9.2343 91.652-150.57 0.5481-158.27l-7.2981-0.6169v-41.206-41.206l7.385-0.6243c90.231-7.6273 90.222-150.71-0.011-158.34l-7.3744-0.6234v-36.728-36.728l3.125-0.625c1.7187-0.3437 4.3367-0.625 5.8176-0.625 15.126 0 39.423-14.074 50.863-29.463 36.836-49.549 8.7414-120.77-50.766-128.69l-9.0395-1.2035v-40.703-40.703l2.25-0.603c1.2375-0.3317 3.7962-0.6091 5.6861-0.6166 16.181-0.064 39.8-13.527 51.767-29.507 37.492-50.063 7.6121-122.91-52.954-129.09l-6.75-0.6896v-36.682-36.682l8.8309-1.1757c89.495-11.916 88.546-150.57-1.0809-157.85l-7.75-0.6295v-41.214-41.214l6.3299-0.64852c92.07-9.5 90.76-158.69-1.395-158.69h-4.938v-37.5-37.5h5.34c91.384 0 92.718-150.07 1.41-158.65l-6.75-0.63475v-32.71-32.71l7.25-0.61685c91.283-7.77 88.713-158.68-2.698-158.68h-4.5526v-32.79-32.79l10.298-1.6335c88.403-14.023 86.169-151.44-2.5612-157.54l-7.763-0.54 0.2633-33.1 0.2633-33.11 7.5-0.62505c32.938-2.745 62.331-31.558 67.525-66.194l0.702-4.681h47.271 47.271l0.6629 5.3058c10.95 87.639 135.92 86.352 151.01-1.556l0.644-3.75h40.26 40.26l1.2244 7.25c14.002 82.909 130.79 84.897 149.36 2.5429l2.21-9.793h36.299 36.299v2.34c0 9.6788 8.5936 29.835 17.328 40.644 40.863 50.564 120.38 29.68 133.36-35.025l1.59-7.959h36.163 36.163l1.2244 7.25c14.148 83.778 133.05 84.479 149.82 0.8843l1.6-8.134h36.154 36.154l1.2218 7.1251c14.55 84.85 135.48 84.23 150.28-0.76985l1.1-6.355h36.397 36.397v2.3117c0 14.445 13.656 39.571 27.915 51.362 45.258 37.423 112.93 11.535 123.15-47.106l1.1-6.568h40.172 40.172l1.7914 8.75c13.295 64.937 94.403 84.776 134.14 32.81 8.2025-10.728 16.523-30.729 16.523-39.72 0-1.7487 1.6-1.84 32.3-1.84h32.275l1.7191 8.3518c15.164 73.667 111.24 86.001 143.27 18.392 3.2523-6.8649 7.4638-20.917 7.4638-24.904 0-1.7563 1.9-1.84 40.4-1.84h40.386l0.7019 4.6808c13.122 87.501 137.93 87.501 151.05 0l0.7-4.681 32.136 0.0001022 32.136 0.0001022 0.1774 10.25c0.7219 41.71 34.737 77.65 73.573 77.735l6.75 0.01478v33.031c0 25.576-0.2821 33.109-1.25 33.373-0.6875 0.18811-4.175 0.8824-7.75 1.5429-80.196 14.816-79.773 140.34 0.5257 155.91l8.4677 1.6422v37.205 37.205l-3.75 0.64403c-53.208 9.1381-81.66 65.77-57.75 114.95 11.576 23.808 29.363 36.816 58.75 42.963l2.75 0.57524v32.936 32.936l-3.75 0.59531c-85.611 13.591-87.911 141.56-2.8351 157.7l6.5851 1.2492v37.169 37.169l-6.6022 1.1497c-83.37 14.518-82.649 147.04 0.8522 156.65l5.75 0.6616v41.768 41.768l-6.75 1.1726c-83.357 14.481-82.634 144.77 0.8708 156.79l5.3792 0.7739 0.2618 37.513 0.2618 37.513-6.8291 1.0753c-52.942 8.3364-80.993 76.343-50.392 122.17 13.163 19.714 37.111 35.198 54.439 35.198h2.781l-0.2609 41.694-0.261 41.694-7.5 1.3684c-51.829 9.4559-78.704 73.815-50.328 120.53 11.652 19.182 38.186 36.718 55.558 36.718h2.7701v37.455 37.455l-3.75 0.6161c-88.653 14.565-87.852 141.13 1 157.99l2.75 0.5217v41.436 41.436l-3.75 0.6161c-89.183 14.652-87.988 140.61 1.5 158.07l2.25 0.4391v41.462 41.462l-2.75 0.5217c-40.865 7.7524-67.25 38.754-67.25 79.016 0 40.3 26.347 71.257 67.25 79.016l2.75 0.5217v41.462 41.462l-2.75 0.5217c-88.901 16.865-89.702 143.42-1 157.99l3.75 0.6161v37.205 37.205l-8.4677 1.6422c-80.17 15.548-80.594 141.31-0.5257 155.92 3.575 0.6523 7.0625 1.34 7.75 1.5281 0.9678 0.2648 1.25 7.7883 1.25 33.328v32.986l-3.75 0.6161c-86.557 14.22-88.16 140.47-2 157.48l5.75 1.1355v36.785 36.785l-8.25 0.6847c-36.224 3.0064-62.939 27.718-71.193 65.853l-0.5952 2.75h-32.462-32.462l-0.5952-2.75c-8.6786-40.097-37.999-65.588-75.443-65.588-37.472 0-66.758 25.46-75.443 65.588l-0.5952 2.75h-40.512c-31.573 0-40.583-0.2758-40.832-1.25-0.1758-0.6875-1.0699-4.4-1.9868-8.25-18.498-77.675-130.95-77.294-147.63 0.5-0.6483 3.025-1.3948 6.2875-1.6588 7.25-0.6214 2.2652-65.151 2.7561-65.728 0.5-0.1758-0.6875-1.0699-4.4-1.9868-8.25-19.507-81.91-130.98-76.863-149.07 6.75l-0.5952 2.75h-40.512c-31.547 0-40.594-0.2766-40.88-1.25-0.202-0.6875-1.0832-4.4-1.9582-8.25-16.419-72.239-116.12-79.512-143.92-10.5-2.3703 5.8827-3.1087 8.3769-5.1071 17.25l-0.6193 2.75h-36.512c-28.347 0-36.594-0.2795-36.88-1.25-0.202-0.6875-1.094-4.4-1.9823-8.25-18.36-79.578-132.17-76.705-148.56 3.75l-1.1713 5.75h-36.46c-28.306 0-36.543-0.2796-36.828-1.25-0.202-0.6875-1.0915-4.3747-1.9768-8.1939-18.104-78.1-134.98-76.566-148.1 1.9439-1.3938 8.3435 2.7505 7.5559-38.214 7.2622l-36.578-0.2622-1.8149-7.6926c-19.11-80.998-132.04-79.136-148.85 2.4548l-1.1867 5.7623-36.576-0.2623-36.576-0.2622-1.8149-7.6926c-19.112-81.007-132.04-79.154-148.84 2.4426l-1.1841 5.75h-40.701-40.701l-1.2337-6.5037c-15.555-81.999-132.26-81.41-149.18 0.7537l-1.1841 5.75-47.179-0.01-47.179-0.01-0.2185-8.7446z" transform="matrix(0 1 1 0 27.416 27.416)" filter="url(#filter4699)"></path><path id="path4687" d="m3303.7 103.72c-39.592-0.9891-76.244-35.333-76.244-71.442v-4.84h-41.5-41.5v3.5422c0 92.315-150.89 95.886-158.68 3.7559l-0.6169-7.2981h-32.673-32.673l-1.1757 8.8309c-11.773 88.423-143.65 89.723-157.99 1.5575l-1.6896-10.385h-36.75-36.75v3.5422c0 92.358-150.88 95.93-158.68 3.7559l-0.6169-7.2981h-41.353-41.353v3.5422c0 32.139-28.277 63.994-63.5 71.534-45.882 9.8209-95.5-27.203-95.5-71.259v-3.8163h-41.362-41.362l-0.6838 6.75c-9.2343 91.163-150.57 91.652-158.27 0.5481l-0.6169-7.2981h-41.206-41.206l-0.6243 7.385c-7.6273 90.231-150.71 90.222-158.34-0.011l-0.6234-7.3744h-36.728-36.728l-0.625 3.125c-0.3437 1.7188-0.625 4.3367-0.625 5.8176 0 15.126-14.074 39.423-29.463 50.863-49.549 36.837-120.77 8.7414-128.69-50.766l-1.2035-9.0395h-40.703-40.703l-0.603 2.25c-0.3317 1.2375-0.6091 3.7963-0.6166 5.6861-0.064 16.181-13.527 39.8-29.507 51.767-50.063 37.492-122.91 7.6121-129.09-52.954l-0.6896-6.75h-36.682-36.682l-1.1757 8.8309c-11.916 89.495-150.57 88.546-157.85-1.0809l-0.6295-7.75h-41.214-41.214l-0.6485 6.3299c-9.4334 92.073-158.63 90.764-158.63-1.3948v-4.938h-37.5-37.5v5.34c0 91.384-150.07 92.718-158.65 1.41l-0.63475-6.75h-32.71-32.71l-0.61685 7.25c-7.7664 91.281-158.68 88.716-158.68-2.6974v-4.5526h-32.79-32.79l-1.6335 10.298c-14.08 88.404-151.5 86.174-157.6-2.557l-0.53355-7.7633-33.106 0.2633-33.106 0.2633-0.62505 7.5c-2.7451 32.939-31.558 62.331-66.194 67.525l-4.6808 0.7019v47.271 47.271l5.3058 0.6629c87.639 10.95 86.352 135.92-1.5558 151.01l-3.75 0.644v40.26 40.26l7.25 1.2244c82.909 14.002 84.897 130.79 2.5429 149.36l-9.7929 2.2085v36.299 36.299h2.34c9.6788 0 29.835 8.5936 40.644 17.328 50.564 40.863 29.68 120.38-35.025 133.36l-7.9591 1.5963v36.163 36.163l7.25 1.2244c83.778 14.148 84.479 133.05 0.8843 149.82l-8.1343 1.6315v36.154 36.154l7.1251 1.2218c84.85 14.55 84.23 135.48-0.76985 150.28l-6.3553 1.1067v36.397 36.397h2.3117c14.445 0 39.571 13.656 51.362 27.915 37.423 45.258 11.535 112.93-47.106 123.15l-6.5676 1.1437v40.172 40.172l8.75 1.7914c64.937 13.295 84.776 94.403 32.81 134.14-10.728 8.2025-30.729 16.523-39.72 16.523-1.7487 0-1.84 1.6019-1.84 32.275v32.275l8.3518 1.7191c73.667 15.164 86.001 111.24 18.392 143.27-6.8649 3.2523-20.917 7.4638-24.904 7.4638-1.7563 0-1.84 1.837-1.84 40.386v40.386l4.6808 0.7019c87.501 13.122 87.501 137.93 0 151.05l-4.6808 0.7019 0.000102 32.136 0.000102 32.136 10.25 0.1774c41.71 0.7219 77.65 34.737 77.735 73.573l0.0148 6.75h33.031c25.576 0 33.109-0.2821 33.373-1.25 0.18811-0.6875 0.8824-4.175 1.5429-7.75 14.816-80.196 140.34-79.773 155.91 0.5257l1.6422 8.4677h37.205 37.205l0.64403-3.75c9.1381-53.208 65.77-81.66 114.95-57.75 23.808 11.576 36.816 29.363 42.963 58.75l0.57524 2.75h32.936 32.936l0.59531-3.75c13.591-85.611 141.56-87.911 157.7-2.8351l1.2492 6.5851h37.169 37.169l1.1497-6.6022c14.518-83.37 147.04-82.649 156.65 0.8522l0.6616 5.75h41.768 41.768l1.1726-6.75c14.481-83.357 144.77-82.634 156.79 0.8708l0.7739 5.3792 37.513 0.2618 37.513 0.2618 1.0753-6.8291c8.3364-52.942 76.343-80.993 122.17-50.392 19.714 13.163 35.198 37.111 35.198 54.439v2.781l41.694-0.2609 41.694-0.261 1.3684-7.5c9.4559-51.829 73.815-78.704 120.53-50.328 19.182 11.652 36.718 38.186 36.718 55.558v2.7701h37.455 37.455l0.6161-3.75c14.565-88.653 141.13-87.852 157.99 1l0.5217 2.75h41.436 41.436l0.6161-3.75c14.652-89.183 140.61-87.988 158.07 1.5l0.4391 2.25h41.462 41.462l0.5217-2.75c7.7524-40.865 38.754-67.25 79.016-67.25 40.3 0 71.257 26.347 79.016 67.25l0.5217 2.75h41.462 41.462l0.5217-2.75c16.865-88.901 143.42-89.702 157.99-1l0.6161 3.75h37.205 37.205l1.6422-8.4677c15.548-80.17 141.31-80.594 155.92-0.5257 0.6523 3.575 1.34 7.0625 1.5281 7.75 0.2648 0.9678 7.7883 1.25 33.328 1.25h32.986l0.6161-3.75c14.22-86.557 140.47-88.16 157.48-2l1.1355 5.75h36.785 36.785l0.6847-8.25c3.0064-36.224 27.718-62.939 65.853-71.193l2.75-0.5952v-32.462-32.462l-2.75-0.5952c-40.097-8.6786-65.588-37.999-65.588-75.443 0-37.472 25.46-66.758 65.588-75.443l2.75-0.5952v-40.512c0-31.573-0.2758-40.583-1.25-40.832-0.6875-0.1758-4.4-1.0699-8.25-1.9868-77.675-18.498-77.294-130.95 0.5-147.63 3.025-0.6483 6.2875-1.3948 7.25-1.6588 2.2652-0.6214 2.7561-65.151 0.5-65.728-0.6875-0.1758-4.4-1.0699-8.25-1.9868-81.91-19.507-76.863-130.98 6.75-149.07l2.75-0.5952v-40.512c0-31.547-0.2766-40.594-1.25-40.88-0.6875-0.202-4.4-1.0832-8.25-1.9582-72.239-16.419-79.512-116.12-10.5-143.92 5.8827-2.3703 8.3769-3.1087 17.25-5.1071l2.75-0.6193v-36.512c0-28.347-0.2795-36.594-1.25-36.88-0.6875-0.202-4.4-1.094-8.25-1.9823-79.578-18.36-76.705-132.17 3.75-148.56l5.75-1.1713v-36.46c0-28.306-0.2796-36.543-1.25-36.828-0.6875-0.202-4.3747-1.0915-8.1939-1.9768-78.1-18.104-76.566-134.98 1.9439-148.1 8.3435-1.3938 7.5559 2.7505 7.2622-38.214l-0.2622-36.578-7.6926-1.8149c-80.998-19.11-79.136-132.04 2.4548-148.85l5.7623-1.1867-0.2623-36.576-0.2622-36.576-7.6926-1.8149c-81.007-19.112-79.154-132.04 2.4426-148.84l5.75-1.1841v-40.701-40.701l-6.5037-1.2337c-81.999-15.555-81.41-132.26 0.7537-149.18l5.75-1.1841-0.01-47.179-0.01-47.179-8.7446-0.2185z" fill="#f2f2f2"></path><g id="g4142" transform="matrix(3.9798 0 0 3.9674 177.58 180.4)"><rect id="rect4" height="500" width="750" y="0" x="0" fill="#ed1c24"></rect><rect id="rect6" height="250" width="750" y="125" x="0" fill="#fff"></rect><path id="path8" fill="#00a651" d="m371.59 125c-5.3662 11.3-15.472 19.198-25.131 26.672-1.5891 1.3878-5.5399 4.0757-2.6737 6.1211 2.4556-2.7444 9.1949 0.88988 5.2781 3.8408-3.5087 3.2841-8.3396 4.4865-12.235 7.1964-3.4502 1.8745-6.9495 3.8319-9.6855 6.7012-0.18637 4.4824 5.5616 2.0011 7.8942 3.8686 3.0375 3.2474-1.288 8.7217-5.2743 7.4697-5.0971 0.15619-8.6174 4.641-10.545 8.9198-3.9871 6.1655-11.542 7.9912-17.557 11.5-3.4418 2.0063-6.781 4.2261-9.9849 6.5671-4.1308 2.8243-0.53706 8.4163 3.8582 7.0436 4.7445-0.47302 9.0131-4.2008 13.925-3.1266 4.4547 1.5652 5.7049 7.387 4.1867 11.452-1.124 3.2544-3.8489 5.5467-6.0321 8.0889-3.5441 3.5904-8.1789 5.9214-13.066 7.0328-4.7234 1.5858-8.9685 4.4794-12.067 8.3857-3.596 3.62-7.1775 7.2986-11.311 10.317-1.3056 3.3313 2.3789 6.169 5.4507 6.0806 6.4723-0.40757 10.958-5.7048 16.47-8.427 4.5743-2.0559 9.9578 2.8744 8.8388 7.6399-0.35398 4.6362-4.6948 6.9888-8.5543 8.4154-11.346 5.7037-21.197 13.975-29.944 23.101-1.8091 3.6901-6.7825 2.6038-9.4605 5.1762-1.7446 3.2554 2.6338 4.9719 5.2458 4.6372 11.225-1.3501 21.699-6.0946 31.622-11.315 3.6901-1.7643 7.1551-4.0861 10.992-5.4922 3.6036-0.89024 8.6285 0.67626 9.2732 4.7775-0.005 4.3295-4.2943 6.7275-7.6911 8.4188-10.475 5.5035-21.971 8.5459-33.167 12.184-4.1914-1.1718-7.3491 6.2853-2.751 7.6262 4.8621 1.6673 10.031 0.33054 15.004 0.11201 15.379-2.3561 28.829-10.678 43.204-16.057 5.9763-1.9481 13.031 0.7705 15.98 6.3705 2.9632 4.9916 2.6923 11.556-0.43346 16.405-4.9398 10.569-12.45 20.282-22.532 26.358-6.3284 3.133-13.715 4.3317-19.139 9.1284-5.0161 1.6535 2.5147 8.4316 3.6033 3.052 3.0142-4.111 8.3304-5.3398 13.153-5.5096 7.2472-0.78893 14.944-2.1257 20.575-7.1428 5.0484-3.9203 10.023-9.3285 16.878-9.4129 3.7885 0.44927 7.5356 3.4935 11.383 1.636 3.366-1.5407 8.6473-0.63787 9.5265 3.5014 1.6074 4.8421 6.5983 7.0452 10.556 9.6365 1.4326 2.0118 6.193 7.2003 7.2908 2.6258-0.88582-3.2626 0.37987-8.2551 4.6598-7.1648 3.7384 0.16692 7.301 1.5454 11.032 1.7715 4.9689 1.0292 9.1136 4.4309 11.935 8.5382 1.941 2.6804 6.1926 7.2859 9.3515 3.7317 1.9603-3.6758-1.7816-6.7415-4.8278-8.0541-4.442-2.7527-8.2398-6.4186-12.124-9.8896-5.7242-5.3461-10.668-12.146-11.577-20.133-1.2318-7.9633-0.58354-16.085 0.45571-24.027 1.308-5.1129 7.8461-7.9043 12.418-5.1876 6.4328 2.9351 12.821 7.135 20.196 6.6796 10.657 0.22962 21.607-1.8108 32.022 1.2773 10.134 3.1924 17.38 11.745 27.252 15.446 2.21 1.3431 5.0372 0.0649 5.847-2.2955 0.97841-2.1211 0.28806-4.8349-1.7557-6.0437-11.441-11.549-27.078-17.159-40.315-26.184-4.1677-1.0584-4.9265-7.7636-1.0738-9.6994 5.0656-3.6812 12.232-1.9676 16.726 1.8279 3.7951 2.2231 8.0707 3.8886 12.523 3.8925 4.5609-1.4278 2.3497-8.0276-1.734-8.5238-7.3992-4.1778-12.699-11.034-19.109-16.467-3.6907-3.125-7.7303-6.2889-12.691-6.8955-2.7112-0.49371-5.4848-0.60175-8.2318-0.41738-2.5763-2.7998 0.85729-7.0869 4.1885-6.7363 3.4184 0.23026 6.8172 0.48435 10.231 0.009 3.8152-0.27951 7.627-0.67444 11.456-0.70064 3.0906 2.1047 9.2664-1.531 6.4771-5.1598-3.047-2.67-7.4532-2.4381-11.094-3.8083-6.3966-2.0986-12.906-3.7948-19.498-5.125-4.6113-0.27496-4.0425-6.3438 0.0104-7.0132 2.6524-0.98945 4.9578 1.0484 7.504 1.3643 4.3484 0.93443 8.8379 0.92243 13.184 1.8698 3.6851-1.8191 0.83638-7.203-2.4972-7.5167-7.8655-2.8126-14.663-7.8888-21.308-12.827-7.3367-5.5177-13.993-11.899-21.42-17.289-2.6947-1.6699-7.1114-2.1508-7.8203-5.8516-0.25-3.4045 3.7573-4.955 6.598-4.159 4.0304 1.1902 7.786 3.2629 11.894 4.2805 3.2228 0.5477 6.5457 1.5013 9.6521 1.0952 3.9432-2.4776-1.6912-4.0611-3.7306-4.9207-5.2574-2.8354-9.9288-6.6132-14.66-10.216-3.9983-3.4129 3.3913-4.9207 5.9332-3.6066 4.2499 1.778 4.7342-4.4149 1.5574-5.9732-3.7431-1.5916-6.9621-4.2337-10.356-6.5379-6.1325-4.3655-13.078-7.8212-20.617-8.7811-8.4521-0.8493-16.341-5.7097-20.825-12.938-2.7806-4.1191-4.8212-8.6743-6.7939-13.218zm-27.757 47.418c4.3563 0.12924 3.6866 7.9802-0.60227 7.4564-4.165-0.26804-3.9101-8.2998 0.60227-7.4564zm41.09 4.2279c4.2389-0.75826 5.1366 6.9771 0.90145 7.3402-4.4126 0.78986-6.048-7.8297-0.90145-7.3402zm-12.035 1.0082c4.2974 0.8454 3.5329 8.3317-0.80403 8.3971-3.1731 0.70654-6.593 2.8722-9.8032 1.2491-2.6106-2.761 1.1626-6.8437 4.0767-7.7412 2.2352-0.45054 4.2916-1.4654 6.5306-1.905zm27.698 0.0325c4.1412 1.5107 2.6807 8.8214-1.6875 8.7282-4.1309 0.55352-6.0545-6.3375-2.2025-7.9719 1.247-0.44214 2.5534-0.81472 3.89-0.75629zm-46.724 8.2932c3.0452 2.898 1.2466 8.4905-2.5082 9.8276-2.7065 1.5055-6.3963 5.0667-9.3442 2.1365-1.5995-3.5791 2.4153-6.2742 4.7768-8.2609 2.1076-1.6387 4.4334-3.1263 7.0756-3.7032zm34.778 16.164c4.3599 2.0586 2.1467 9.9158-2.6384 9.4274-3.93-0.99583-3.4169-7.7362 0.54165-8.2739 0.74828-0.28639 1.4346-0.70797 2.0968-1.1535zm-13.834 0.78051c4.0776 1.9091 0.96423 8.7138-3.1428 7.7332-4.2584-0.50009-4.1798-7.9868 0.51635-7.3109 0.8849-0.0439 1.7987-0.0664 2.6265-0.42235zm29.822 3.9027c4.4692-1.3868 9.8498 3.2176 8.3993 7.8867-1.9907 3.6198-6.9167 4.078-10.445 2.7252-4.0514-0.2-6.7764-6.2906-3.1672-8.8697 1.4935-1.128 3.3762-1.5916 5.2127-1.7423zm-66.016 1.1708c3.6953-2.0104 7.6188 4.032 4.4762 6.6973-2.0817 3.0604-7.427 4.3107-9.784 0.90738-1.9581-3.3241 1.2079-8.9087 5.3078-7.6046zm-17.05 2.862c4.1918 0.57349 6.9232 4.3809 8.4724 8.0063 0.37817 4.4181-6.1409 6.8423-8.9848 3.6278-3.1978-2.0062-5.9971-6.132-4.3206-9.9612 1.0329-1.5205 3.0907-2.1479 4.833-1.6729zm102 15.969c4.5493-1.1989 7.8522 6.0716 3.9459 8.7018-3.5717 3.2442-10.516-1.0538-8.6537-5.6827 0.92574-1.7161 2.7776-2.8566 4.7079-3.0191zm-57.904 8.2932c3.8146 0.4858 2.5787 7.0971-0.94845 6.8752-3.7856-0.70169-2.9188-7.2481 0.94845-6.8752zm-19.35 3.5124c3.1113-2.2014 7.1241 3.1717 4.536 5.6755-3.102 2.1846-7.1256-3.1032-4.536-5.6755zm30.766 0.65045c3.6064 2.1913 5.7474 6.2771 6.1957 10.4-1.7283 3.8519-8.403 2.9234-9.1555-1.1786-1.3198-3.2441-0.10346-7.4177 2.9598-9.2215zm10.737 6.3744c4.6474-1.1674 2.9797 8.5466-0.90075 5.1772-1.2895-1.5313-0.59889-4.051 0.90075-5.1772zm-67.432 6.7647c3.0774-0.90137 7.5632 0.0461 8.4126 3.5779 0.35882 3.3193-3.2913 5.0461-5.9659 5.8687-4.2868 1.3228-8.4794 3.4944-13.089 3.2026-3.4553-1.9749-4.6956-6.0164-5.9276-9.5412 3.3347-3.1266 8.2452-2.2094 12.379-2.992 1.396-0.0716 2.7936-0.1056 4.1913-0.11613zm104.6 15.22c3.9256-1.9246 8.1471 4.3064 4.8612 7.2168-4.1108 4.7315-12.025 5.6107-16.941 1.6358-0.59091-4.1872 3.5917-7.2284 7.307-7.8294 1.5629-0.4415 3.1162-1.1011 4.7725-1.0233zm22.064 4.7808c4.4602-0.76762 7.9736 5.5953 4.7883 8.8884-3.0145 4.5454-10.203 5.7375-14.314 2.0116-1.6025-3.7684 1.6483-7.6949 5.1082-8.9039 1.4871-0.63289 2.8951-1.444 4.4172-1.9961zm-110.94 6.7647c4.1306-0.40762 7.9147 3.6906 7.3726 7.763 2.9902 2.9426-2.3049 8.4246-5.284 5.3775-2.6252-3.181-2.6114-7.4964-3.6283-11.303-0.0455-0.84562 0.58052-1.941 1.5396-1.8371zm31.71 2.3742c4.2703-1.8462 9.7951 3.2625 7.4702 7.5875-1.6603 3.5226-8.1355 2.3419-7.9204-1.7384-0.0111-1.9518-0.16861-3.9536 0.45019-5.8491zm-15.427 2.7644c4.2819-0.98171 8.2105 4.569 5.831 8.2728-4.269 0.37953-6.4852-4.6869-5.831-8.2728z"></path></g></g></svg> 